REM DIRINDEX 1\2,1\3,1\4,1\5
REM DIRNAME folder01,folder02,folder03,folder04,folder05
TITLE ""
FILE "1Q_t_0850-0859.mp3" MP3
  TRACK 01 AUDIO
    TITLE "3:cjc004_3453"
    INDEX 01 00:00:00
  TRACK 02 AUDIO
    TITLE "0:"
    INDEX 01 00:00:68
  TRACK 03 AUDIO
    TITLE "4:cjc004_3454"
    INDEX 01 00:01:17
  TRACK 04 AUDIO
    TITLE "0:"
    INDEX 01 00:02:32
  TRACK 05 AUDIO
    TITLE "5:cjc004_3455"
    INDEX 01 00:02:53
  TRACK 06 AUDIO
    TITLE "0:"
    INDEX 01 00:07:70
  TRACK 07 AUDIO
    TITLE "3:cjc004_3456"
    INDEX 01 00:08:50
  TRACK 08 AUDIO
    TITLE "0:"
    INDEX 01 00:09:67
  TRACK 09 AUDIO
    TITLE "4:cjc004_3457"
    INDEX 01 00:10:18
  TRACK 10 AUDIO
    TITLE "0:"
    INDEX 01 00:11:29
  TRACK 11 AUDIO
    TITLE "5:cjc004_3458"
    INDEX 01 00:11:54
  TRACK 12 AUDIO
    TITLE "0:"
    INDEX 01 00:16:44
  TRACK 13 AUDIO
    TITLE "3:cjc004_3459"
    INDEX 01 00:17:16
  TRACK 14 AUDIO
    TITLE "0:"
    INDEX 01 00:18:31
  TRACK 15 AUDIO
    TITLE "4:cjc004_3460"
    INDEX 01 00:18:54
  TRACK 16 AUDIO
    TITLE "0:"
    INDEX 01 00:19:58
  TRACK 17 AUDIO
    TITLE "5:cjc004_3461"
    INDEX 01 00:20:06
  TRACK 18 AUDIO
    TITLE "0:"
    INDEX 01 00:24:24
  TRACK 19 AUDIO
    TITLE "3:cjc004_3462"
    INDEX 01 00:24:74
  TRACK 20 AUDIO
    TITLE "0:"
    INDEX 01 00:26:34
  TRACK 21 AUDIO
    TITLE "4:cjc004_3463"
    INDEX 01 00:26:66
  TRACK 22 AUDIO
    TITLE "0:"
    INDEX 01 00:28:23
  TRACK 23 AUDIO
    TITLE "5:cjc004_3464"
    INDEX 01 00:28:45
  TRACK 24 AUDIO
    TITLE "0:"
    INDEX 01 00:32:64
  TRACK 25 AUDIO
    TITLE "3:cjc004_3465"
    INDEX 01 00:33:48
  TRACK 26 AUDIO
    TITLE "0:"
    INDEX 01 00:34:53
  TRACK 27 AUDIO
    TITLE "4:cjc004_3466"
    INDEX 01 00:35:06
  TRACK 28 AUDIO
    TITLE "0:"
    INDEX 01 00:36:31
  TRACK 29 AUDIO
    TITLE "5:cjc004_3467"
    INDEX 01 00:36:54
  TRACK 30 AUDIO
    TITLE "0:"
    INDEX 01 00:41:61
  TRACK 31 AUDIO
    TITLE "3:cjc004_3468"
    INDEX 01 00:42:37
  TRACK 32 AUDIO
    TITLE "0:"
    INDEX 01 00:43:56
  TRACK 33 AUDIO
    TITLE "4:cjc004_3469"
    INDEX 01 00:44:12
  TRACK 34 AUDIO
    TITLE "0:"
    INDEX 01 00:45:37
  TRACK 35 AUDIO
    TITLE "5:cjc004_3470"
    INDEX 01 00:45:65
  TRACK 36 AUDIO
    TITLE "0:"
    INDEX 01 00:49:47
  TRACK 37 AUDIO
    TITLE "3:cjc004_3471"
    INDEX 01 00:50:23
  TRACK 38 AUDIO
    TITLE "0:"
    INDEX 01 00:51:38
  TRACK 39 AUDIO
    TITLE "4:cjc004_3472"
    INDEX 01 00:51:67
  TRACK 40 AUDIO
    TITLE "0:"
    INDEX 01 00:53:17
  TRACK 41 AUDIO
    TITLE "5:cjc004_3473"
    INDEX 01 00:53:43
  TRACK 42 AUDIO
    TITLE "0:"
    INDEX 01 00:58:69
  TRACK 43 AUDIO
    TITLE "3:cjc004_3474"
    INDEX 01 00:59:49
  TRACK 44 AUDIO
    TITLE "0:"
    INDEX 01 01:00:55
  TRACK 45 AUDIO
    TITLE "4:cjc004_3475"
    INDEX 01 01:01:03
  TRACK 46 AUDIO
    TITLE "0:"
    INDEX 01 01:02:55
  TRACK 47 AUDIO
    TITLE "5:cjc004_3476"
    INDEX 01 01:03:06
  TRACK 48 AUDIO
    TITLE "0:"
    INDEX 01 01:07:14
  TRACK 49 AUDIO
    TITLE "3:cjc004_3477"
    INDEX 01 01:07:70
  TRACK 50 AUDIO
    TITLE "0:"
    INDEX 01 01:09:12
  TRACK 51 AUDIO
    TITLE "4:cjc004_3478"
    INDEX 01 01:09:38
  TRACK 52 AUDIO
    TITLE "0:"
    INDEX 01 01:10:61
  TRACK 53 AUDIO
    TITLE "5:cjc004_3479"
    INDEX 01 01:11:17
  TRACK 54 AUDIO
    TITLE "0:"
    INDEX 01 01:15:58
  TRACK 55 AUDIO
    TITLE "3:cjc004_3480"
    INDEX 01 01:16:40
  TRACK 56 AUDIO
    TITLE "0:"
    INDEX 01 01:18:06
  TRACK 57 AUDIO
    TITLE "4:cjc004_3481"
    INDEX 01 01:18:29
  TRACK 58 AUDIO
    TITLE "0:"
    INDEX 01 01:20:10
  TRACK 59 AUDIO
    TITLE "5:cjc004_3482"
    INDEX 01 01:20:34
  TRACK 60 AUDIO
    TITLE "0:"
    INDEX 01 01:25:37
